<?xml version="1.0" encoding="utf-8"?>
<!-- Generator: Adobe Illustrator 26.0.0, SVG Export Plug-In . SVG Version: 6.00 Build 0)  -->
<svg version="1.1" id="Layer_1" xmlns="http://www.w3.org/2000/svg" xmlns:xlink="http://www.w3.org/1999/xlink" x="0px" y="0px"
	 viewBox="0 0 1954.3 639.7" style="enable-background:new 0 0 1954.3 639.7;" xml:space="preserve">
<style type="text/css">
	.st0{fill:#23BBAF;}
	.st1{fill:#11375B;}
	.st2{fill:#FFFFFF;}
</style>
<g id="Layer_1-2">
	<path class="st0" d="M545.1,49.6l-112.4-1.4c-13.8,0-26.8,0.2-39.2,0.5s-22.7,0.7-31,1.1l-21.8,1.1c-7.3,0.4-14.5,0.9-21.8,1.6
		c5.4,3.6,8.2,7.1,8.2,10.3c-0.4,5.1-3.3,11.9-8.7,20.4s-12.9,19.2-22.3,32.1s-20.8,28-34,45.4c-13.2,17.4-27.6,37.5-43.2,60.4
		s-30.2,44.9-43.8,66.1s-25.7,40.2-36.2,56.9c-10.5,16.7-19.1,30.5-25.8,41.6c-6.7,11.1-11,17.7-12.8,19.9
		c-1.8,2.2-5.5,2.9-11.2,2.2c-6.1-0.9-12-2.9-17.4-6c-6-3.3-11.4-7.5-16-12.5c-4.5-4.7-7.1-10.9-7.1-17.4c0-1.8,2.9-7.1,8.7-15.8
		s13.6-19.7,23.4-32.9c9.8-13.2,21-28.2,33.7-44.9s25.8-33.9,39.4-51.7s27.3-35.5,41.1-53.3s26.5-34.4,38-49.8l30.7-40.8
		c8.9-11.8,15.3-20.8,19.3-26.9c-20.7,2.2-40.4,4.5-59.3,7.1c-18.9,2.5-36.1,5-51.7,7.3c-15.6,2.4-28.9,4.6-40,6.8s-19,3.8-23.7,4.9
		L78.1,48.2l83.7-17.7c22.1-4.2,46.7-8,73.7-11.5s55.3-6.5,84.9-9s57.5-4.5,83.8-6s49.6-2.1,69.9-1.9c20.3,0.2,35,1.4,44.1,3.5
		L545.1,49.6z"/>
	<path class="st0" d="M474.6,258.7c2.8-3.2,6.1-6,9.8-8.2c3.3-1.8,5.9-2.6,7.9-2.4s3,1.2,3,3s-1.5,4.4-4.4,7.6
		c-5.8,6.2-12.8,14.1-21,23.7s-17,19.8-26.4,30.5s-19.2,21.5-29.4,32.4s-19.9,20.8-29.4,29.6c-8.2,7.9-16.9,15.1-26.1,21.8
		c-8,5.6-14.9,8.6-20.7,9c-4.7,0.4-9.2-1.5-13.3-5.7c-4.6-4.7-8.3-10.3-10.9-16.3c-3.3-7.4-5.9-15.2-7.6-23.1
		c-2-8.7-3.4-17.5-4.1-26.4c-0.7-8.5-0.6-17.1,0.5-25.6c0.8-7.3,2.9-14.3,6-21c2.5-5.1,7.1-11.2,13.6-18.5s13.4-14.5,20.7-21.8
		c7.3-7.2,14.1-13.8,20.4-19.6c4.5-4,8.7-8.1,12.8-12.5c4.3-5.1,6.8-8.5,7.3-10.3s0.3-3.1-0.8-3.8c-1.8-1.1-6.1-1.3-12.8-0.5
		c-6.8,0.7-13.7,0.4-20.4-1.1c-8.3,9.4-17.6,19.3-27.8,29.6c-10.2,10.3-19.4,20.2-27.7,29.6c-2.1,2.9-4.9,5.3-8.2,6.8
		c-2.3,1.1-4.8,1.7-7.4,1.6c-2-0.2-3.2-1-3.5-2.5s0.5-3.4,2.7-6c7.3-8.3,15.8-18.8,25.6-31.3c9.8-12.5,19.4-25.8,28.8-40
		c-2.5-5.4-3.8-11.2-3.8-17.1c0-5.8,0.8-11.6,2.4-17.1c1.5-5.2,4-10.1,7.3-14.4c3.3-4.2,6.9-6.8,10.9-7.9c4.4-1.4,8.3-1.2,11.7,0.8
		c3.5,2.1,6.6,4.8,9,8.2c2.4,3.3,4.5,6.9,6.2,10.6c1.6,3.6,2.5,6.5,2.5,8.7c0.4,4.4-0.6,8.7-2.7,12.5c-2.2,4-5.8,8.5-10.9,13.6
		c2.2,1.8,7.3,2,15.2,0.5c8-1.5,17.2-3.1,27.7-4.9c2.9-0.7,6.3,0.2,10.1,2.7c3.9,2.6,7.2,5.9,9.8,9.8c2.6,3.8,4.6,7.9,6,12.2
		c1.3,4.2,0.8,7.5-1.4,10.1c-9.9,12.2-20.5,23.7-31.8,34.6c-12.9,12.5-25,24.6-36.2,36.5s-20.1,22.8-26.7,32.9
		c-6.5,10.2-7.4,18.3-2.7,24.5c3.6,4.7,10.8,5.3,21.5,1.6c10.7-3.6,22.9-9.8,36.5-18.5c14.8-9.6,28.9-20,42.4-31.3
		C449.1,284.5,462.3,272,474.6,258.7z"/>
	<path class="st0" d="M674.8,239.7c-2.5,2.2-6.5,5.6-12,10.3s-11.4,10.2-17.7,16.3c-6.3,6.2-12.8,12.8-19.3,19.9
		s-12.3,13.9-17.4,20.4c-4.5,5.6-8.4,11.6-11.7,18c-2.7,5.4-3.5,9.6-2.5,12.5c2.2,5.8,7.7,7,16.6,3.5c8.9-3.4,19.1-9.5,30.7-18.2
		c11.6-8.7,23.8-18.8,36.5-30.5s23.9-22.7,33.7-33.2c3.6-4.2,8.7-6.7,14.2-7.1c1.8,0,3,0.6,3.5,1.9s0.1,3-1.4,5.2
		c-4.7,6.5-10.7,14.6-18,24.2c-7.2,9.6-15.1,19.8-23.7,30.5c-8.5,10.7-17.3,21.4-26.4,32.1c-9.1,10.7-17.8,20.3-26.1,28.8
		c-7.2,7.5-15,14.4-23.4,20.7c-7.3,5.3-13.4,7.9-18.5,7.9s-9.4-2.3-13.1-6.8c-3.6-4.5-6.3-10.6-8.2-18.2c-1.9-8.7-2.7-17.7-2.2-26.7
		c0.5-10.8,2.1-21.6,4.9-32.1c-11,10.9-21.3,22.6-30.8,34.8c-8.9,11.6-17.3,22-25.3,31.3c-7,8.3-14.8,15.8-23.4,22.3
		c-7.6,5.7-15.6,8.5-23.9,8.5c-6.9,0-12.6-4.2-17.1-12.5s-8.1-18.4-10.6-30.2c-2.6-11.9-3.9-24-4.1-36.2c-0.2-12.3,0.8-22.7,3-31
		c1.5-5.4,5.5-12.7,12-21.8c7.4-10.1,15.4-19.7,23.9-28.8c9.4-10.1,19.7-20.5,30.7-31c11.1-10.5,21.9-20.2,32.6-28.9
		c10.7-8.7,20.5-16,29.7-22c9.1-6,16.2-9.5,21.2-10.6c4.3-0.7,8.7-0.7,13.1,0c5.3,0.8,10.5,2.6,15.2,5.2c5.3,2.9,10.2,6.5,14.4,10.8
		c4.7,4.7,8.3,10.4,10.6,16.6c3.3-1.8,7.4-1.1,12.2,2.2c5.1,3.5,9.5,7.8,13,12.8c3.6,4.9,6.3,10.4,7.9,16.3
		C679.5,232.5,678.4,236.8,674.8,239.7z M461.5,344.1c1.5,5.4,5,8.1,10.6,7.9s12.6-2.4,21-6.8c9.9-5.3,19.3-11.4,28.3-18.2
		c10.5-7.8,21.6-16.8,33.2-26.9c19.6-17,36.2-33.8,49.8-50.3s24-30,31.3-40.5c-12,0-24.7,2.7-38.1,8.2c-14,5.8-27.4,13-40,21.5
		c-13.3,8.9-26,18.7-38.1,29.1c-11.2,9.6-21.7,19.8-31.6,30.8c-8.9,10-15.8,19.2-20.7,27.5C462.3,334.5,460.4,340.5,461.5,344.1z"/>
	<path class="st0" d="M1109,258.7c6.9-7.6,12.6-11.3,17.1-11.1s4.3,3.9-0.8,11.1c-13.1,17.1-25.9,33.7-38.6,50.1
		c-12.7,16.3-25.4,31.3-38.1,44.9c-11.6,12.6-24.3,24.1-38.1,34.3c-12.7,9.3-25.5,15.1-38.6,17.7c-6.5,1.4-13.1-0.7-19.6-6.5
		s-12.1-13.7-16.6-23.7c-4.7-10.6-7.5-21.9-8.4-33.4c-1.1-12.2,0.8-24.6,5.4-35.9c1.8-4.7,5.8-10.8,12-18.2
		c6.7-8,13.7-15.6,21.2-22.9c8-7.8,16.1-15.4,24.2-22.9c8.1-7.4,15.3-13.9,21.5-19.3c-13.4,6.9-29,17.5-46.8,31.8
		C947,269,928.9,284.8,910.4,302s-36.4,34.9-53.6,53c-17.2,18.1-31.8,34.4-43.8,49c-2.2,2.2-5.3,2.9-9.2,2.2
		c-4.4-0.9-8.5-2.7-12.2-5.2c-4.3-2.8-8-6.3-11.2-10.3c-3.3-4.2-5.1-8.3-5.4-12.2c-0.4-3.6,1.4-9.2,5.2-16.9
		c4.5-8.7,9.5-17.2,15-25.3c6.2-9.2,13.1-19,20.7-29.1c7.6-10.2,15.2-19.8,22.8-28.8c7.6-9.1,14.7-17.2,21.2-24.5
		c6.5-7.3,11.8-12.7,15.8-16.3c-13.4,6.9-29.7,16.4-48.7,28.6c-19,12.1-38.5,25.6-58.5,40.3c-19.9,14.7-39.2,30-57.7,46
		s-33.9,31.2-46.2,45.7c-1.8,2.2-5,3.2-9.5,3c-4.8-0.3-9.5-1.5-13.9-3.5c-4.5-2.1-8.7-4.9-12.2-8.5c-3.5-3.5-5.2-7.2-5.2-11.2
		c0-2.5,3.3-8.5,9.8-18c6.5-9.4,14.8-20.6,24.8-33.5s21-26.8,32.9-41.6s23.5-29.4,34.5-43.5c11.1-14.1,20.9-27.1,29.7-38.9
		s14.7-20.8,18-26.9c1.4-2.5,4.6-3.3,9.5-2.2c5.3,1.3,10.4,3.4,15,6.3c4.9,2.9,9.1,6.9,12.4,11.5c3.3,4.5,4,9.2,2.2,13.9
		c-3.3,7.6-9.8,17.1-19.6,28.6c-9.8,11.4-20.7,23.7-32.6,36.7c-12,13.1-23.9,26.5-35.6,40.3c-11.8,13.8-21.1,26.8-28,39.2
		c13.8-13.4,28.8-28.4,45.2-44.9c16.3-16.5,32.7-32.8,49.2-49c16.5-16.1,32.6-30.8,48.4-44.1c15.8-13.3,30.2-23.3,43.3-30.2
		c4.7-2.5,10.7-3,18-1.4c7,1.6,13.8,4.1,20.1,7.6c5.6,3,10.5,7.2,14.4,12.3c3.4,4.7,3.9,9.1,1.4,13.1c-4,5.8-9,12.5-15,20.1
		s-12.2,15.5-18.5,23.7c-6.3,8.1-12.7,16.2-19,24.1s-11.9,15.3-16.6,22c-4,5.6-7.6,11.4-10.9,17.4c-2.5,4.9-3.3,8.1-2.2,9.5
		c13.4-12.3,27-26.2,40.8-41.6s27.6-30.5,41.3-45.2c13.8-14.7,27.4-28.3,40.8-40.8c13.4-12.5,26.7-22.2,39.7-29.1
		c2.5-2.5,7.2-2.8,13.9-0.8c7,2.1,13.7,5.2,19.9,9c6,3.6,11.4,8.1,16,13.3c4.2,4.9,5.2,8.8,3,11.7c-10.9,13.8-23.2,28.4-37,43.8
		c-13.8,15.4-26.6,29.9-38.4,43.5c-10.1,11.5-19.5,23.6-28.2,36.2c-7.1,10.5-9.2,17.6-6.3,21.2c2.5,3.3,7.3,4.2,14.2,2.7
		s14.9-4.4,23.9-8.9c10.2-5.2,20-11,29.4-17.4c10.5-7.1,20.9-14.6,31-22.6s19.7-16.1,28.6-24.3
		C1095.9,272.6,1103.2,265.2,1109,258.7z"/>
	<path class="st0" d="M1271.2,183.6c6.1,6.1,11.2,13.2,15,21s4.8,16.4,3,25.8c-1.1,4.4-5.5,10.2-13.3,17.7
		c-7.8,7.4-18.3,14.6-31.6,21.5c-13.2,6.9-28.9,12.7-47.1,17.4s-38.1,6.7-59.8,6c-8.3,12.7-14.2,24.2-17.7,34.7
		c-3.4,10.4-3,18,1.3,22.7c3.6,4,9.8,5.5,18.5,4.6s19-3.5,30.7-7.6c13-4.7,25.8-10.2,38.1-16.5c13.6-6.9,27-14.4,40.3-22.5
		c13.2-8.1,25.7-16.5,37.3-25c10.2-7.3,19.8-15.4,28.8-24.2c8.7-8.3,14.8-12.2,18.5-11.7s2.9,4.4-2.2,11.7c-2.5,4-7.9,10.3-16,18.8
		s-17.9,18.2-29.4,29c-11.4,10.8-23.8,21.9-37,33.3s-26.3,21.9-39.2,31.4c-11.6,8.7-23.7,16.8-36.2,24.1
		c-11.2,6.5-20.5,9.9-27.8,10.3c-9.4,0.7-18.1-3.5-25.8-12.7c-8.2-9.9-14.6-21.2-19-33.3c-4.9-12.9-8.1-26.4-9.5-40.1
		s-0.3-24.9,3.3-33.6c5.1-12.7,12.7-25.8,22.8-39.4c10.1-13.5,21.3-26.2,33.5-37.8c11.5-11.1,24-21.1,37.3-29.9
		c12.7-8.3,24.3-13.6,34.8-15.8c6.2-1.4,14-0.5,23.4,2.7C1255.7,169.4,1264,175.2,1271.2,183.6z M1254.8,198.9
		c-2.2-2.5-5.4-4-8.7-4.1c-3.7-0.2-7.4,0.5-10.9,1.9c-6.2,2.2-13.1,6-20.7,11.4c-8.1,5.8-15.8,12.2-23.1,19
		c-8.1,7.6-15.8,15.6-23.1,23.9c-7.6,8.7-14.7,17.6-21.2,26.7c6.2-0.4,13.4-2.3,21.8-5.7c8.8-3.6,17.3-7.8,25.6-12.5
		c8.7-4.9,17.2-10.2,25.3-16c7.5-5.2,14.6-10.9,21.3-17.1c6-5.6,10.4-10.9,13.1-15.8S1257,201.8,1254.8,198.9L1254.8,198.9z"/>
	<path class="st0" d="M1590.5,113.4c2.9-2.5,7.1-2.6,12.5-0.3c5.6,2.5,10.8,5.9,15.2,10.1c4.3,3.8,7.9,8.3,10.6,13.3
		c2.4,4.5,2.3,7.9-0.3,10.1c-5.8,4.6-11.3,9.6-16.3,15c-7.1,7.4-13.7,15.2-19.9,23.4c-6.9,9.2-13.2,18.8-18.8,28.8
		c-5.7,10-10.1,20.7-13.1,31.8c-1.8,6.9-3.4,14.1-4.6,21.5s-2.3,15-3,22.6c16.1,0.1,32.2-2.3,47.6-7.1c14.9-4.6,28.5-12.8,39.4-23.9
		c2.4-2.5,5.3-4.5,8.4-6c3.1-1.4,5.5-2.2,7.3-2.2c1.5-0.2,3,0.7,3.5,2.2c0.6,1.4-0.3,3.5-2.4,6c-13.8,16.3-29.6,28.1-47.3,35.4
		c-18.3,7.4-37.9,11.1-57.7,10.9c-1.5,17.4-2.4,33.3-2.7,47.6c-0.4,14.3-1.4,23.8-3.3,28.6c-1.8,4-5.9,7.6-12.2,10.9
		c-6.9,3.5-14.2,6-21.8,7.6c-8.1,1.8-16.4,2.5-24.8,2.2c-8.4-0.4-15.2-2.5-20.7-6.5c-5.1-3.3-10.3-9.2-15.8-17.7
		c-5.8-9.1-10.8-18.7-15-28.6c-4.6-10.8-8.2-22-10.6-33.5c-2.5-11.8-3.1-22.6-1.6-32.4c0.3-3.5,1.2-6.9,2.7-10.1
		c1.3-2.9,3.1-5.5,5.2-7.9c1.7-2,4-3.5,6.5-4.4c2.3-0.7,4.8-0.3,6.8,1.1c3.6,2.2,8.1,4.6,13.3,7.3c5.3,2.7,10.9,5.3,16.9,7.9
		c6.2,2.6,12.5,4.7,19,6.3c6.7,1.6,13.5,2.5,20.4,2.5l6.5-47.3c2.1-15.8,6-31.3,11.4-46.2c-18.5,9.4-38.9,19.5-61.2,30.2
		s-43.8,21.5-64.5,32.4c-4.1,12.5-7.5,25.2-10.3,38c-2.9,13.4-5.4,26.1-7.3,38.1c-2,12-3.9,22.5-5.7,31.6
		c-1.8,9.1-3.6,15.2-5.4,18.5c-2.2,4-6.7,7.6-13.6,10.9c-7.3,3.4-15,6-22.9,7.6c-8.1,1.8-16.4,2.5-24.8,2.2
		c-8.2-0.4-14.6-2.5-19.3-6.5c-5.4-4-11.2-10.5-17.1-19.6c-6-9-11.1-18.6-15.2-28.6c-3.9-9.1-6.6-18.7-7.9-28.6
		c-1.1-9.1,0.7-15.6,5.4-19.6c6.2-5.3,13.4-9.4,21.2-12c8.6-3,17.4-5.3,26.4-7.1c9.3-1.8,18.6-3.7,28-5.7c9-1.8,17.7-4.7,26.1-8.4
		c4-16.7,6.3-29.2,6.8-37.6s1.2-14,1.9-16.9c-8.1,7.1-15.5,14.9-22,23.4c-7.4,9.4-14,17.4-19.9,23.9c-2.4,2.8-5.2,5.2-8.4,7.1
		c-2.7,1.5-5,2.1-6.8,1.9c-1.6,0-3-1-3.5-2.5c-0.5-1.4,0.3-3.6,2.4-6.5c13.4-18.1,25.2-34,35.4-47.6c10.2-13.6,20-25.7,29.7-36.2
		c9.4-10.3,19.5-19.9,30.2-28.8c11.5-9.4,23.7-17.9,36.5-25.6c3.6-2.2,8-2.1,13.1,0.3s9.7,5.7,13.6,9.8c3.7,3.8,6.7,8.2,8.7,13.1
		c1.8,4.5,1.3,7.9-1.6,10.1c-9.1,6.2-19.8,16.3-32.1,30.5s-23.4,31-33.2,50.6c21-11.6,39.7-22.4,56-32.4s31.3-19.8,44.9-29.4
		c13.6-9.6,26.4-19.2,38.4-28.8C1566.1,134.5,1578.2,124.3,1590.5,113.4z M1319.6,348c4.7-0.7,9.1-3.2,13.1-7.4
		c4.4-4.7,8-10,10.9-15.8c3.5-6.9,6.5-13.9,9-21.2c2.7-7.8,5.2-15.5,7.3-23.1c-4,2.5-9.8,5-17.4,7.3s-15.3,4.8-23.1,7.4
		c-7.8,2.5-14.9,5-21.2,7.3s-10.4,4.6-12.2,6.8c-2.9,3.6-3.4,8.6-1.4,12.8c2.2,4.8,5.4,9.2,9.2,12.8c4.1,3.9,8.8,7.2,13.9,9.8
		C1312.7,347.2,1316.7,348.3,1319.6,348z M1482.8,348c7.3-1.1,13.1-6.2,17.4-15.2c4.7-10.1,8.4-20.7,10.9-31.6
		c-10.6-1.8-21-4.4-31.3-7.6c-10.3-3.3-20.8-6.9-31.3-10.9c0.1,7.3,0.7,14.6,1.9,21.8c1.2,7.5,3.2,14.9,6,22
		c2.4,6.2,6,11.8,10.6,16.6C1471,347.3,1477,349.2,1482.8,348L1482.8,348z"/>
	<path class="st0" d="M1560.6,600.1c1.8-7.6,66.4-125.8,83.8-152.8s41.9-63.6,73.5-109.6c4.7-6.5,9-12.8,12.8-18.8
		s7.7-11.7,11.7-17.1c-8,7.6-17.2,17.4-27.5,29.4s-20.6,23.7-31,35.1c-9.3,10.4-19.1,20.3-29.4,29.7c-9.2,8.3-16.8,12.5-22.6,12.5
		c-7.2,0-13.1-4.1-17.7-12.2c-4.5-8.2-7.6-18-9.2-29.7c-1.6-11.9-1.8-24-0.6-35.9c1.3-12.3,4.1-22.9,8.4-31.6
		c4.1-7.7,8.7-15,13.9-22c6.3-8.9,13.3-18.3,21-28.3c7.7-10,15.6-20,23.9-30.2c8.3-10.1,16.2-19.3,23.7-27.5s13.8-15,19-20.4
		c5.3-5.4,8.8-8.5,10.6-9.2c2.5-1.1,5.6-0.3,9.2,2.4c3.8,2.9,7.2,6.3,10.1,10.1c2.9,3.7,5.1,8,6.5,12.5c1.3,4.4,0.8,7.8-1.4,10.3
		c-6.7,8.7-13.9,17.1-21.5,25c-8.9,9.4-18.1,19.5-27.8,30.2c-9.6,10.7-19.1,21.5-28.6,32.4c-9.4,10.9-17.6,21.1-24.5,30.7
		s-11.9,18.2-15,25.8c-3.1,7.6-3.2,13.4-0.3,17.4c2.5,3.3,7.5,3.3,15,0s16.3-8.7,26.6-16.3c11.7-8.8,22.9-18.2,33.5-28.3
		c12.1-11.3,23.5-23.3,34.3-35.9c10.5-12.3,20.2-23.8,29.1-34.3l23.7-28c6.9-8.2,12.4-14.9,16.6-20.1s7-8.6,8.4-10.1
		c2.9-2.9,6.5-3.6,10.9-2.2c4.5,1.5,8.6,4,12,7.4c3.5,3.3,6.3,7.1,8.4,11.4c2,4.2,1.9,7.3-0.3,9.5c-10.1,11.2-21.8,25.7-34.8,43.2
		s-27.6,38.7-43.6,63.3c-9.8,15.2-19.3,30.3-28.6,45.2c-9.3,14.9-17.9,29.2-25.8,43l-41.3,75.6c-9.4,18.9-70.2,133-72.4,140.6
		L1560.6,600.1z"/>
	<path class="st0" d="M1954.3,604.7C1676.7,529,1282.5,470.4,872.9,470.4c-316.3,0-617.7,40.1-871.5,87.1l12.4-36.8
		c256.1-47.4,540.6-72.4,859.2-72.4c210.7,0,414.2,10.9,605,32.4c184.6,20.8,336,50.4,474,88L1954.3,604.7z"/>
	<path class="st1" d="M542.6,47.3l-112.2-1.4c-13.8,0-26.8,0.2-39.1,0.5s-22.6,0.7-31,1.1c-7.2,0.4-14.5,0.7-21.7,1.1
		c-7.2,0.4-14.5,0.9-21.7,1.6c5.4,3.6,8.1,7.1,8.1,10.3c-0.4,5.1-3.3,11.9-8.7,20.4c-5.4,8.5-12.8,19.2-22.3,32
		c-9.5,12.9-20.8,28-34,45.4c-13.2,17.4-27.6,37.5-43.2,60.3s-30.1,44.8-43.7,66s-25.6,40.1-36.1,56.7
		c-10.5,16.7-19.1,30.5-25.8,41.5c-6.7,11-10.9,17.6-12.8,19.8c-1.8,2.2-5.5,2.9-11.1,2.2c-6.1-0.9-12-2.9-17.4-6
		c-6-3.3-11.4-7.5-16-12.5c-4.5-4.6-7.1-10.8-7.1-17.3c0-1.8,2.9-7.1,8.7-15.8s13.6-19.6,23.4-32.9c9.8-13.2,21-28.1,33.7-44.8
		s25.8-33.8,39.4-51.6c13.6-17.7,27.2-35.5,41-53.2s26.4-34.3,38-49.7s21.8-29,30.7-40.7c8.9-11.7,15.3-20.7,19.3-26.9
		c-20.6,2.2-40.4,4.5-59.2,7.1s-36,5-51.6,7.3c-15.6,2.4-28.9,4.6-39.9,6.8c-11,2.2-18.9,3.8-23.6,4.9L76.5,45.9L160,28.3
		c22.1-4.2,46.6-8,73.6-11.4s55.2-6.4,84.7-9c29.5-2.5,57.4-4.5,83.6-6s49.5-2.1,69.8-1.9c20.3,0.2,34.9,1.4,44,3.5L542.6,47.3z"/>
	<path class="st1" d="M472.2,256c2.8-3.2,6.1-6,9.8-8.1c3.3-1.8,5.9-2.6,7.9-2.4c2,0.2,3,1.2,3,3s-1.5,4.4-4.3,7.6
		c-5.8,6.2-12.8,14-20.9,23.6s-16.9,19.7-26.3,30.4c-9.4,10.7-19.2,21.4-29.3,32.3s-19.9,20.7-29.3,29.6
		c-8.2,7.8-16.9,15.1-26.1,21.7c-8,5.6-14.8,8.6-20.6,9c-4.7,0.4-9.1-1.5-13.3-5.7c-4.6-4.7-8.2-10.3-10.9-16.3
		c-3.3-7.4-5.9-15.1-7.6-23.1c-2-8.7-3.4-17.5-4.1-26.3c-0.7-8.5-0.6-17.1,0.5-25.5c0.8-7.2,2.9-14.3,6-20.9
		c2.5-5.1,7.1-11.2,13.6-18.5s13.4-14.5,20.6-21.7s14-13.7,20.4-19.5c4.5-4,8.7-8.1,12.8-12.5c4.3-5.1,6.8-8.5,7.3-10.3
		s0.3-3.1-0.8-3.8c-1.8-1.1-6.1-1.3-12.8-0.5c-6.8,0.7-13.7,0.4-20.4-1.1c-8.3,9.4-17.6,19.3-27.7,29.6s-19.4,20-27.7,29.4
		c-2.1,2.9-4.9,5.2-8.1,6.8c-2.3,1.1-4.8,1.7-7.3,1.6c-2-0.2-3.2-1-3.5-2.4s0.5-3.4,2.7-6c7.2-8.3,15.7-18.7,25.5-31.2
		s19.4-25.8,28.8-39.9c-2.5-5.3-3.8-11.2-3.8-17.1c0-5.8,0.8-11.6,2.4-17.1c1.5-5.2,4-10.1,7.4-14.4c3.3-4.2,6.9-6.8,10.9-7.9
		c4.3-1.4,8.2-1.2,11.7,0.8c3.5,2.1,6.6,4.8,9,8.1s4.5,6.9,6.2,10.6c1.6,3.6,2.4,6.5,2.4,8.7c0.4,4.3-0.6,8.7-2.7,12.5
		c-2.2,4-5.8,8.5-10.9,13.6c2.2,1.8,7.2,2,15.2,0.5s17.2-3.1,27.7-4.9c2.9-0.7,6.2,0.2,10,2.7c3.9,2.6,7.2,5.9,9.8,9.8
		c2.6,3.8,4.6,7.9,6,12.2c1.3,4.2,0.8,7.5-1.4,10c-9.8,12.2-20.5,23.7-31.8,34.5c-12.8,12.5-24.9,24.6-36.1,36.4
		s-20.1,22.7-26.6,32.8c-6.5,10.1-7.4,18.3-2.7,24.4c3.6,4.7,10.8,5.2,21.5,1.6s22.8-9.8,36.4-18.5c14.7-9.5,28.9-20,42.4-31.2
		C446.8,281.7,460,269.3,472.2,256z"/>
	<path class="st1" d="M672,237c-2.5,2.2-6.5,5.6-11.9,10.3s-11.3,10.1-17.7,16.3c-6.3,6.2-12.8,12.8-19.3,19.8s-12.3,13.8-17.3,20.4
		c-4.5,5.6-8.4,11.6-11.7,17.9c-2.7,5.4-3.5,9.6-2.4,12.5c2.2,5.8,7.7,7,16.6,3.5s19.1-9.5,30.7-18.2c11.6-8.7,23.7-18.8,36.4-30.4
		s23.9-22.7,33.7-33.1c3.6-4.1,8.7-6.7,14.1-7c1.8,0,3,0.6,3.5,1.9s0.1,3-1.4,5.1c-4.7,6.5-10.7,14.6-17.9,24.2
		s-15.1,19.7-23.6,30.4c-8.5,10.7-17.3,21.3-26.3,32s-17.8,20.3-26.1,28.8c-7.2,7.5-15,14.4-23.3,20.6c-7.2,5.2-13.4,7.9-18.5,7.9
		s-9.4-2.3-13-6.8s-6.3-10.6-8.1-18.2c-1.9-8.7-2.6-17.7-2.2-26.6c0.5-10.8,2.1-21.5,4.9-32c-11,10.9-21.3,22.5-30.7,34.7
		c-8.9,11.6-17.3,22-25.2,31.2c-6.9,8.3-14.8,15.7-23.3,22.3c-7.6,5.6-15.6,8.4-23.9,8.4c-6.9,0-12.6-4.2-17.1-12.5
		s-8.1-18.4-10.6-30.1c-2.5-11.9-3.9-24-4.1-36.1c-0.2-12.3,0.8-22.6,3-31c1.4-5.4,5.4-12.7,11.9-21.7c7.4-10.1,15.4-19.7,23.9-28.8
		c9.4-10.1,19.6-20.5,30.7-31c11-10.5,21.9-20.1,32.6-28.8c10.7-8.7,20.5-16,29.6-22s16.1-9.5,21.2-10.5c4.3-0.7,8.7-0.7,13,0
		c5.3,0.8,10.5,2.6,15.2,5.2c5.3,2.9,10.2,6.5,14.4,10.9c4.6,4.7,8.2,10.3,10.6,16.5c3.3-1.8,7.3-1.1,12.2,2.2
		c5.1,3.4,9.5,7.8,13,12.8c3.6,4.9,6.3,10.4,7.9,16.3C676.7,229.9,675.6,234.1,672,237z M459.2,341.3c1.5,5.4,5,8,10.6,7.9
		c5.6-0.2,12.6-2.4,20.9-6.8c9.9-5.3,19.3-11.4,28.2-18.2c10.5-7.8,21.5-16.7,33.1-26.9c19.6-17,36.1-33.8,49.7-50.2
		s24-29.9,31.2-40.4c-12,0-24.6,2.7-38,8.1c-14,5.8-27.4,12.9-39.9,21.5c-13.2,8.9-25.9,18.6-38,29c-11.1,9.5-21.7,19.8-31.5,30.7
		c-8.9,10-15.7,19.1-20.6,27.4S458.1,337.6,459.2,341.3z"/>
	<path class="st1" d="M1105.3,256c6.9-7.6,12.6-11.3,17.1-11.1s4.3,3.9-0.8,11.1c-13.1,17-25.9,33.7-38.6,50s-25.3,31.2-38,44.8
		c-11.6,12.6-24.3,24-38,34.2c-12.7,9.2-25.5,15.1-38.5,17.6c-6.5,1.4-13-0.7-19.5-6.5s-12-13.7-16.6-23.6
		c-4.7-10.6-7.5-21.9-8.4-33.4c-1.1-12.2,0.8-24.5,5.4-35.8c1.8-4.7,5.8-10.7,11.9-18.2c6.7-8,13.7-15.6,21.2-22.8
		c8-7.8,16-15.4,24.2-22.8c8.2-7.4,15.3-13.8,21.4-19.3c-13.4,6.9-28.9,17.5-46.7,31.8s-35.8,30.1-54.3,47.2
		c-18.5,17.2-36.3,34.8-53.5,52.9s-31.8,34.4-43.7,48.9c-2.2,2.2-5.2,2.9-9.2,2.2c-4.4-0.9-8.5-2.6-12.2-5.2
		c-4.3-2.8-8-6.3-11.1-10.3c-3.2-4.2-5.1-8.2-5.4-12.2c-0.4-3.6,1.4-9.2,5.2-16.8c4.5-8.7,9.4-17.1,14.9-25.2
		c6.1-9.2,13-18.9,20.6-29s15.2-19.7,22.8-28.8c7.6-9,14.7-17.2,21.2-24.4c6.5-7.2,11.8-12.7,15.8-16.3
		c-13.4,6.9-29.6,16.4-48.6,28.5c-19,12.1-38.5,25.5-58.4,40.2s-39.1,30-57.5,45.9s-34,31-46.3,45.4c-1.8,2.2-5,3.2-9.5,3
		c-4.8-0.2-9.5-1.4-13.8-3.5c-4.5-2.1-8.7-4.9-12.2-8.4c-3.4-3.4-5.2-7.1-5.2-11.1c0-2.5,3.3-8.5,9.8-17.9s14.8-20.5,24.7-33.4
		c9.9-12.8,20.9-26.7,32.8-41.5c11.9-14.8,23.4-29.3,34.5-43.4c11-14.1,20.9-27.1,29.6-38.8c8.7-11.8,14.7-20.7,17.9-26.8
		c1.4-2.5,4.6-3.3,9.5-2.2c5.3,1.2,10.3,3.3,14.9,6.2c4.9,2.9,9.1,6.8,12.5,11.4c3.3,4.5,4,9.1,2.2,13.8
		c-3.3,7.6-9.8,17.1-19.5,28.5c-9.8,11.4-20.6,23.6-32.6,36.7c-11.9,13.1-23.8,26.5-35.6,40.2s-21.1,26.8-28,39.1
		c13.8-13.4,28.8-28.3,45.1-44.8s32.7-32.8,49.2-48.9s32.6-30.8,48.3-44s30.1-23.3,43.2-30.1c4.7-2.5,10.7-3,17.9-1.4
		c7,1.6,13.8,4.1,20.1,7.6c5.6,3,10.5,7.2,14.4,12.2c3.4,4.7,3.9,9,1.4,13c-4,5.8-9,12.5-14.9,20.1c-6,7.6-12.1,15.5-18.5,23.6
		c-6.3,8.1-12.7,16.2-19,24.2s-11.8,15.3-16.6,22c-4,5.5-7.6,11.4-10.9,17.4c-2.5,4.9-3.3,8.1-2.2,9.5c13.4-12.3,27-26.1,40.7-41.5
		c13.8-15.4,27.5-30.4,41.3-45.1c13.8-14.7,27.3-28.2,40.7-40.7s26.6-22.2,39.6-29.1c2.5-2.5,7.1-2.8,13.8-0.8
		c7,2.1,13.6,5.2,19.8,9c6,3.6,11.4,8,16,13.3c4.2,4.9,5.2,8.8,3,11.7c-10.9,13.8-23.2,28.3-36.9,43.7
		c-13.8,15.4-26.5,29.9-38.3,43.4c-10.1,11.5-19.5,23.5-28.2,36.1c-7.1,10.5-9.1,17.6-6.2,21.2c2.5,3.3,7.2,4.2,14.1,2.7
		s14.9-4.4,23.9-9c10.1-5.2,19.9-11,29.3-17.4c10.5-7.1,20.8-14.6,31-22.5s19.6-16,28.5-24.1C1091,271,1098.3,263.7,1105.3,256z"/>
	<path class="st1" d="M1267.1,181.1c6.1,6.1,11.1,13.2,14.9,20.9c3.8,7.8,4.8,16.4,3,25.8c-1.1,4.4-5.5,10.2-13.3,17.6
		s-18.3,14.6-31.5,21.4c-13.2,6.9-28.9,12.7-47,17.4s-38,6.7-59.7,6c-8.3,12.6-14.2,24.1-17.6,34.6s-3,18,1.3,22.7
		c3.6,4,9.8,5.5,18.5,4.6s18.9-3.4,30.7-7.6c13-4.7,25.7-10.2,38-16.5c13.6-6.9,27-14.3,40.2-22.4s25.6-16.4,37.2-24.9
		c10.2-7.3,19.8-15.4,28.8-24.1c8.7-8.3,14.8-12.2,18.5-11.7s2.9,4.4-2.2,11.7c-2.5,4-7.9,10.2-16,18.7s-17.9,18.2-29.3,29
		s-23.7,21.9-36.9,33.2s-26.2,21.8-39.1,31.3c-11.6,8.7-23.6,16.7-36.1,24c-11.2,6.5-20.4,9.9-27.7,10.3c-9.4,0.7-18-3.5-25.8-12.7
		c-8.2-9.9-14.6-21.2-19-33.2c-4.9-12.9-8.1-26.3-9.5-40s-0.4-24.9,3.3-33.5c5.1-12.7,12.7-25.8,22.8-39.4
		c10.1-13.5,21.2-26.1,33.4-37.7c11.5-11.1,23.9-21.1,37.2-29.9c12.7-8.3,24.2-13.6,34.7-15.8c6.2-1.4,13.9-0.5,23.3,2.7
		C1251.5,167,1259.8,172.8,1267.1,181.1z M1250.8,196.3c-2.2-2.5-5.3-4-8.7-4.1c-3.7-0.2-7.4,0.5-10.9,1.9c-6.2,2.2-13,6-20.6,11.4
		c-8.1,5.8-15.8,12.2-23.1,19c-8.1,7.6-15.8,15.5-23.1,23.9c-7.6,8.7-14.7,17.5-21.2,26.6c6.2-0.4,13.4-2.3,21.7-5.7
		c8.7-3.6,17.3-7.8,25.5-12.5c8.7-4.9,17.1-10.2,25.2-16c7.4-5.2,14.5-10.9,21.2-17.1c6-5.6,10.3-10.9,13-15.7
		C1252.6,203.1,1252.9,199.2,1250.8,196.3L1250.8,196.3z"/>
	<path class="st1" d="M1585.8,111.1c2.9-2.5,7.1-2.6,12.5-0.3c5.6,2.5,10.7,5.8,15.2,10c4.3,3.8,7.8,8.3,10.6,13.3
		c2.4,4.5,2.3,7.9-0.3,10c-5.8,4.6-11.2,9.6-16.3,14.9c-7.1,7.4-13.7,15.2-19.8,23.4c-6.9,9.2-13.1,18.8-18.7,28.8s-10,20.7-13,31.8
		c-1.8,6.9-3.3,14-4.6,21.5s-2.3,14.9-3,22.5c16.1,0.1,32.1-2.3,47.5-7.1c14.9-4.6,28.3-12.8,39.3-23.9c2.4-2.5,5.3-4.5,8.4-6
		c3.1-1.4,5.5-2.2,7.3-2.2c1.5-0.2,3,0.7,3.5,2.2c0.5,1.4-0.3,3.4-2.4,6c-13.8,16.3-29.5,28.1-47.2,35.3
		c-18.3,7.3-37.8,11-57.6,10.9c-1.5,17.4-2.4,33.2-2.7,47.5s-1.4,23.8-3.3,28.5c-1.8,4-5.9,7.6-12.2,10.9c-6.9,3.4-14.2,6-21.7,7.6
		c-8.1,1.8-16.4,2.5-24.7,2.2c-8.3-0.4-15.2-2.5-20.6-6.5c-5.1-3.3-10.3-9.1-15.7-17.6c-5.7-9.1-10.7-18.6-14.9-28.5
		c-4.6-10.8-8.2-21.9-10.6-33.4c-2.5-11.8-3.1-22.5-1.6-32.3c0.3-3.5,1.2-6.8,2.7-10c1.3-2.9,3-5.5,5.2-7.9c1.7-2,4-3.5,6.5-4.3
		c2.3-0.7,4.8-0.3,6.8,1.1c3.6,2.2,8,4.6,13.3,7.3c5.3,2.7,10.9,5.3,16.8,7.9c6.2,2.6,12.5,4.7,19,6.2c6.7,1.6,13.5,2.4,20.4,2.4
		l6.5-47.2c2.1-15.7,5.9-31.2,11.4-46.2c-18.5,9.4-38.8,19.4-61.1,30.1s-43.7,21.4-64.3,32.3c-4.1,12.5-7.6,25.2-10.3,38
		c-2.9,13.4-5.3,26.1-7.3,38s-3.9,22.4-5.7,31.5c-1.8,9-3.6,15.2-5.4,18.5c-2.2,4-6.7,7.6-13.6,10.9c-7.3,3.4-14.9,5.9-22.8,7.6
		c-8.1,1.8-16.4,2.5-24.7,2.2c-8.1-0.4-14.6-2.5-19.3-6.5c-5.4-4-11.1-10.5-17.1-19.5s-11-18.5-15.2-28.5
		c-3.9-9.1-6.6-18.7-7.9-28.5c-1.1-9,0.7-15.6,5.4-19.5c6.2-5.3,13.4-9.4,21.2-11.9c8.6-3,17.4-5.3,26.3-7.1
		c9.2-1.8,18.6-3.7,28-5.7c9-1.8,17.7-4.7,26.1-8.4c4-16.7,6.3-29.2,6.8-37.5s1.2-13.9,1.9-16.8c-8.1,7-15.5,14.9-22,23.4
		c-7.4,9.4-14,17.4-19.8,23.9c-2.4,2.8-5.2,5.2-8.4,7.1c-2.7,1.5-5,2.1-6.8,1.9c-1.6,0-3-1-3.5-2.4s0.3-3.6,2.4-6.5
		c13.4-18.1,25.2-33.9,35.3-47.5s20-25.6,29.6-36.1c9.4-10.3,19.4-19.9,30.1-28.8c11.5-9.4,23.6-17.9,36.4-25.5
		c3.6-2.2,7.9-2.1,13,0.3s9.7,5.7,13.6,9.8c3.7,3.7,6.6,8.2,8.7,13c1.8,4.5,1.3,7.9-1.6,10.1c-9.1,6.2-19.7,16.3-32,30.4
		s-23.3,30.9-33.1,50.5c21-11.6,39.6-22.3,55.9-32.3s31.2-19.7,44.8-29.3c13.6-9.6,26.3-19.2,38.3-28.8
		C1561.4,132.1,1573.5,121.9,1585.8,111.1z M1315.4,345.1c4.7-0.7,9-3.2,13-7.3c4.4-4.7,8-10,10.9-15.7c3.5-6.8,6.5-13.9,9-21.2
		c2.7-7.8,5.2-15.5,7.3-23.1c-4,2.5-9.8,5-17.4,7.3s-15.3,4.8-23.1,7.3c-7.8,2.5-14.8,5-21.2,7.3c-6.3,2.3-10.4,4.6-12.2,6.8
		c-2.9,3.6-3.4,8.6-1.4,12.8c2.2,4.8,5.3,9.2,9.2,12.8c4.1,3.9,8.8,7.2,13.8,9.8C1308.5,344.4,1312.5,345.4,1315.4,345.1
		L1315.4,345.1z M1478.3,345.1c7.2-1.1,13-6.2,17.4-15.2c4.7-10.1,8.3-20.7,10.9-31.5c-10.6-1.8-21-4.4-31.2-7.6
		c-10.3-3.2-20.7-6.9-31.2-10.9c0.1,7.3,0.7,14.5,1.9,21.7c1.1,7.5,3.2,14.9,6,22c2.4,6.2,6,11.8,10.6,16.6
		C1466.6,344.4,1472.5,346.3,1478.3,345.1L1478.3,345.1z"/>
	<path class="st1" d="M1555.9,596.7c1.8-7.6,66.3-125.5,83.6-152.5s41.8-63.4,73.3-109.4c4.7-6.5,9-12.8,12.8-18.7
		c3.8-6,7.7-11.7,11.7-17.1c-8,7.6-17.1,17.4-27.4,29.3s-20.6,23.6-30.9,35c-9.3,10.4-19.1,20.2-29.3,29.6
		c-9.2,8.3-16.7,12.5-22.5,12.5c-7.2,0-13.1-4.1-17.6-12.2s-7.6-18-9.2-29.6c-1.6-11.9-1.8-23.9-0.6-35.8
		c1.3-12.3,4.1-22.8,8.4-31.5c4.1-7.7,8.7-15,13.8-22c6.3-8.9,13.3-18.3,20.9-28.2s15.6-20,23.9-30.1s16.2-19.3,23.6-27.4
		c7.4-8.2,13.8-14.9,19-20.4c5.2-5.4,8.8-8.5,10.6-9.2c2.5-1.1,5.6-0.3,9.2,2.4c3.8,2.9,7.1,6.3,10,10.1c2.9,3.7,5.1,8,6.5,12.5
		c1.3,4.3,0.8,7.8-1.4,10.3c-6.7,8.7-13.8,17.1-21.4,25c-8.9,9.4-18.1,19.5-27.7,30.1c-9.6,10.7-19.1,21.4-28.5,32.3
		s-17.6,21.1-24.4,30.7c-6.9,9.6-11.8,18.2-14.9,25.8c-3.1,7.6-3.2,13.4-0.3,17.4c2.5,3.3,7.5,3.3,14.9,0s16.3-8.7,26.6-16.3
		c11.7-8.7,22.8-18.2,33.4-28.2c12-11.3,23.5-23.3,34.2-35.8c10.5-12.3,20.2-23.7,29-34.2l23.6-28c6.9-8.1,12.4-14.8,16.6-20.1
		s7-8.6,8.4-10c2.9-2.9,6.5-3.6,10.9-2.2c4.5,1.5,8.6,4,11.9,7.3c3.5,3.3,6.3,7.1,8.4,11.4c2,4.2,1.9,7.3-0.3,9.5
		c-10.1,11.2-21.7,25.6-34.7,43.2s-27.5,38.7-43.4,63.3c-9.8,15.2-19.3,30.2-28.5,45.1c-9.2,14.8-17.8,29.1-25.8,42.9l-41.3,75.4
		c-9.4,18.8-70,132.7-72.2,140.3L1555.9,596.7z"/>
	<path class="st1" d="M1948.8,601.2c-277-75.5-670.4-134-1079.1-134c-315.6,0-616.4,40-869.7,86.9l12.4-36.8
		C267.9,470,551.9,445,869.7,445c210.2,0,413.3,10.9,603.7,32.3c184.2,20.7,335.2,50.3,473,87.8L1948.8,601.2z"/>
	<path class="st2" d="M59.2,639.3c3.7-0.6,7.2-2,10.2-4.1c2.5-1.8,4.5-4.2,5.8-7.1c1.1-2.6,1.5-5.4,1-8.1c-0.6-3.5-2-6.2-4-8
		c-2-1.7-4.4-2.9-6.9-3.5c-3.3-0.7-6.6-1.1-10-1.4c-3.4-0.3-6-0.6-7.9-1c-1.8-0.3-3.5-1.1-5-2.2c-1.5-1.1-2.5-2.8-2.7-4.7
		c-0.6-2.6,0.1-5.2,1.9-7.2c2-2.1,4.7-3.4,7.5-3.8c3-0.7,6.1-0.3,8.8,1c2.1,1,3.8,2.8,4.6,5l8.5-1.5c-1.1-4.1-4-7.6-7.9-9.4
		c-4-2-8.8-2.5-14.4-1.5c-3.6,0.5-7,1.8-10,3.7c-2.6,1.6-4.7,3.9-6,6.7c-1.2,2.7-1.6,5.7-1,8.6c0.4,3,1.8,5.8,4,7.9
		c2,1.7,4.3,2.9,6.8,3.5c3.3,0.6,6.6,1.1,9.9,1.2c2.7,0.2,5.4,0.5,8,0.9c1.9,0.3,3.7,1.1,5.2,2.2c1.5,1.2,2.5,3,2.8,4.9
		c0.5,2.6-0.2,5.3-2,7.3c-1.8,2.1-4.5,3.5-8.2,4.1c-3.8,0.7-6.9,0.3-9.2-1.2c-2.2-1.3-3.9-3.5-4.6-6l-8.2,1.4c0.5,2.9,2,5.6,4.2,7.6
		c2.3,2.1,5.2,3.6,8.2,4.2C52,639.9,55.6,639.9,59.2,639.3z"/>
	<path class="st1" d="M138.8,579c-3.5,0.5-6.9,2-9.7,4.2c-2.7,2.1-4.5,5-5.3,8.3c-1.9-2.9-4.7-5.1-8-6.2c-3.5-1.2-7.2-1.4-10.8-0.8
		c-3,0.5-5.8,1.6-8.3,3.3c-2.3,1.6-4.1,3.8-5.3,6.4l-1.1-6.4l-7.8,1.3l7.5,44.2l7.8-1.3l-4.1-24.4c-0.8-4.6-0.2-8.4,1.8-11.2
		s5-4.6,9-5.3c3.9-0.7,7.2,0,9.9,2c2.7,2,4.4,5.2,5.1,9.5l4.1,25l7.6-1.3l-4-24.4c-0.8-4.6-0.2-8.4,1.9-11.2c2-2.8,5-4.6,9.1-5.2
		s7.2,0.1,9.9,2s4.4,5.2,5.1,9.6l4,25l7.6-1.2l-4.1-26.1c-0.5-3.6-1.9-7.1-4.1-10c-2-2.5-4.7-4.4-7.8-5.3
		C145.6,578.6,142.1,578.4,138.8,579z"/>
	<path class="st1" d="M171.1,597.2c0.6,4.2,2.2,8.1,4.8,11.5c2.4,3.1,5.5,5.6,9.2,7s7.7,1.9,11.7,1.2c3.7-0.5,7.2-1.9,10.2-4.1
		c2.6-1.9,4.6-4.5,5.9-7.5l1.2,8.2l7.8-1.2l-6.5-44.3l-7.9,1.2l1.2,8.1c-2-2.5-4.7-4.3-7.7-5.4c-3.6-1.2-7.4-1.6-11.1-0.9
		c-4,0.5-7.7,2.1-10.9,4.6c-3.1,2.4-5.4,5.5-6.8,9.2C170.8,588.8,170.4,593.1,171.1,597.2z M210.7,591.3c0.5,3.1,0.2,6.2-0.8,9.1
		c-1,2.6-2.7,4.9-4.9,6.6c-2.2,1.7-4.9,2.8-7.7,3.2s-5.6,0.2-8.2-0.8c-2.6-1-4.9-2.7-6.6-4.9c-1.9-2.5-3.1-5.4-3.5-8.5
		c-0.5-3-0.3-6.2,0.8-9c1-2.6,2.7-4.9,4.9-6.5c4.6-3.4,10.6-4.2,16-2.3c2.6,1,4.9,2.6,6.6,4.8C209.2,585.3,210.4,588.3,210.7,591.3
		L210.7,591.3z"/>
	<path class="st1" d="M237.4,572.2l-1-7.2l-7.8,1.1l6.4,44.4l7.7-1.1l-3.4-24.1c-1.3-9,2.4-14.1,11.2-15.3l2.1-0.3l-1.1-7.6
		c-3.2,0.4-6.3,1.5-9,3.4C240.2,567.2,238.4,569.5,237.4,572.2z"/>
	<path class="st1" d="M283.2,564.7l-0.8-6.1c-4.1,0.5-8.2,1-12.3,1.6l-1.5-11.2l-7.8,1.1l1.5,11.2l-6.1,0.8l0.9,6.1l6.1-0.8
		l3.6,26.2c0.6,4.3,2.1,7.3,4.5,8.9c2.4,1.6,5.8,2.1,10.1,1.5l7-0.9l-0.8-6.2l-5.7,0.8c-2.4,0.3-4.1,0.1-5.2-0.7s-1.8-2.2-2.1-4.4
		l-3.6-26.2C275,565.8,279.1,565.3,283.2,564.7z"/>
	<path class="st1" d="M339.3,597.1c3.7-0.4,7.2-1.6,10.4-3.6c2.6-1.6,4.7-4,6.1-6.8c1.2-2.5,1.7-5.3,1.4-8.1
		c-0.4-3.6-1.6-6.3-3.6-8.2c-1.9-1.8-4.2-3.2-6.7-3.9c-3.3-0.9-6.6-1.5-9.9-1.9c-3.4-0.5-6-0.9-7.9-1.4c-1.8-0.4-3.5-1.2-4.9-2.4
		s-2.3-2.9-2.5-4.8c-0.5-2.6,0.4-5.2,2.2-7.1c2.1-2,4.8-3.1,7.7-3.4c3-0.5,6.1,0,8.8,1.5c2.1,1.1,3.6,3,4.3,5.3l8.6-1
		c-0.9-4.2-3.6-7.8-7.3-9.8c-3.9-2.2-8.7-3-14.3-2.3c-3.6,0.4-7,1.5-10.1,3.2c-2.7,1.5-4.9,3.7-6.3,6.4c-1.4,2.6-1.9,5.6-1.5,8.5
		c0.4,3.5,1.6,6.2,3.6,8.1c1.9,1.8,4.1,3.1,6.7,3.8c3.2,0.8,6.5,1.4,9.8,1.8c2.7,0.3,5.3,0.8,7.9,1.4c1.9,0.4,3.6,1.3,5.1,2.5
		c1.5,1.3,2.4,3.1,2.5,5.1c0.4,2.6-0.5,5.3-2.4,7.2c-1.9,2-4.7,3.2-8.4,3.7c-3.9,0.5-6.9-0.1-9.2-1.7c-2.2-1.5-3.7-3.7-4.3-6.2
		l-8.3,1.1c0.4,2.9,1.7,5.7,3.8,7.8c2.2,2.2,5,3.8,8,4.6C332.1,597.3,335.7,597.6,339.3,597.1z"/>
	<path class="st1" d="M391,591.2c4.2-0.4,8.2-1.8,11.8-4.2c3.4-2.2,6.1-5.3,7.8-9c3.5-8,2.5-17.2-2.6-24.3c-2.4-3.2-5.7-5.7-9.4-7.1
		c-4-1.5-8.2-2-12.5-1.5c-4.2,0.4-8.3,1.8-11.8,4.2c-3.3,2.2-6,5.4-7.6,9.1c-1.7,3.9-2.3,8.2-1.7,12.4c0.4,4.3,2,8.3,4.5,11.8
		c2.4,3.2,5.6,5.7,9.3,7.1C382.7,591.1,386.9,591.6,391,591.2z M390.3,584.7c-2.7,0.3-5.4,0-7.9-1s-4.7-2.7-6.2-4.9
		c-1.8-2.7-2.9-5.7-3.2-8.9c-0.5-3.2-0.1-6.4,1.1-9.4c1-2.5,2.8-4.7,5.1-6.2c2.3-1.5,4.9-2.4,7.7-2.7c2.7-0.3,5.4,0,8,1
		s4.8,2.7,6.5,4.9c3.6,5.4,4.4,12.2,2,18.2c-1.1,2.6-3,4.7-5.3,6.3C395.6,583.4,393,584.4,390.3,584.7L390.3,584.7z"/>
	<path class="st1" d="M418.7,526.5l6.4,60.2l7.8-0.8l-6.3-60.2L418.7,526.5z"/>
	<path class="st1" d="M475.7,536.5L478,561c0.4,4.7-0.4,8.3-2.6,11s-5.3,4.2-9.5,4.6c-4,0.4-7.4-0.5-9.9-2.6
		c-2.6-2.1-4.1-5.4-4.5-9.8L449,539l-7.8,0.8l2.7,26.1c0.3,3.7,1.5,7.2,3.6,10.2c1.9,2.6,4.5,4.7,7.5,5.8c3.2,1.2,6.6,1.6,10,1.2
		c3-0.3,6-1.2,8.6-2.8c2.4-1.4,4.4-3.5,5.7-6l0.6,6.6l7.8-0.8l-4.1-44.6L475.7,536.5z"/>
	<path class="st1" d="M519.3,538.8l-0.5-6.1l-12.4,1.1l-1-11.2l-7.9,0.7l1,11.2l-6.1,0.5l0.5,6.1l6.1-0.5l2.4,26.3
		c0.4,4.3,1.7,7.4,4.1,9.1c2.3,1.7,5.7,2.4,10,2l7-0.6l-0.5-6.3l-5.7,0.5c-2.4,0.2-4.1-0.1-5.2-0.9s-1.7-2.3-1.9-4.5l-2.2-26.3
		L519.3,538.8z"/>
	<path class="st1" d="M531.8,524.3c1.4-0.1,2.7-0.7,3.6-1.8c1.8-2.1,1.6-5.2-0.4-7.1l-0.1-0.1c-1.1-0.9-2.4-1.3-3.8-1.1
		c-1.4,0.1-2.8,0.7-3.7,1.8c-1.8,2-1.7,5.1,0.3,6.9c0.1,0.1,0.2,0.1,0.3,0.2C528.9,524,530.3,524.4,531.8,524.3z M528.3,531.9
		l3.7,44.7l7.8-0.7l-3.6-44.7L528.3,531.9z"/>
	<path class="st1" d="M573.6,574.1c4.2-0.3,8.4-1.6,12-3.8c3.5-2.1,6.3-5.1,8.1-8.8c1.9-3.8,2.8-8.1,2.4-12.4c-0.2-4.3-1.6-8.4-4-12
		c-2.3-3.3-5.5-5.9-9.2-7.4c-8-3.2-17-2.5-24.4,1.8c-3.4,2.1-6.2,5.1-8,8.7c-1.9,3.8-2.6,8.1-2.2,12.3c0.2,4.3,1.6,8.4,4,12
		c2.2,3.3,5.4,5.9,9,7.5C565.2,573.8,569.4,574.5,573.6,574.1z M573.1,567.6c-2.7,0.2-5.4-0.2-7.8-1.2c-2.5-1.1-4.6-2.9-6-5.2
		c-1.7-2.7-2.7-5.8-2.8-9.1c-0.3-3.2,0.2-6.4,1.5-9.3c1.1-2.5,3-4.6,5.3-6c4.8-2.8,10.6-3.3,15.8-1.2c2.5,1.1,4.7,2.9,6.3,5.2
		c3.4,5.5,3.9,12.3,1.2,18.2c-1.2,2.5-3.2,4.6-5.6,6.1C578.5,566.5,575.8,567.4,573.1,567.6z"/>
	<path class="st1" d="M628,524c-3.1,0.2-6.1,1-8.8,2.4c-2.5,1.3-4.6,3.3-6,5.7l-0.4-6.4l-7.9,0.5l2.9,44.7l7.8-0.5l-1.6-24.7
		c-0.3-4.7,0.7-8.3,3-10.9s5.5-4,9.7-4.3c4.1-0.3,7.4,0.7,9.9,3s3.9,5.6,4.1,10l1.5,25.3c2.6-0.2,5.1-0.3,7.7-0.5l-1.5-26.4
		c-0.3-6.2-2.4-10.9-6.2-13.9S633.8,523.6,628,524z"/>
	<path class="st1" d="M679.4,567.6c3.1-0.1,6.1-0.8,8.9-2.1c2.4-1.1,4.4-2.8,5.8-4.9c1.3-2,2-4.3,1.8-6.7c-0.1-2.4-1-4.7-2.7-6.5
		c-1.6-1.6-3.5-2.8-5.7-3.5c-2.8-0.9-5.6-1.6-8.4-2.2c-2.2-0.4-4.3-1-6.4-1.6c-1.4-0.4-2.8-1.1-3.9-2.1c-1.1-0.9-1.7-2.2-1.7-3.6
		c-0.1-1.8,0.8-3.6,2.3-4.6c2-1.3,4.3-2,6.7-2c2.6-0.3,5.2,0.4,7.4,1.8c1.8,1.3,3,3.3,3.2,5.5l7.9-0.4c-0.3-4-2.3-7.7-5.7-10
		c-3.3-2.3-7.6-3.4-12.9-3.1c-3.1,0.1-6.2,0.8-9,2.1c-2.4,1.1-4.4,2.7-5.9,4.8c-1.3,1.9-2,4.1-1.8,6.4c0,2.6,1,5,2.7,6.9
		c1.7,1.7,3.7,3,5.9,3.7c2.8,0.9,5.8,1.7,8.7,2.2c3,0.5,5.9,1.3,8.7,2.4c1.8,0.7,3,2.3,3,4.2c0.1,1.9-0.8,3.7-2.4,4.9
		c-2,1.5-4.5,2.2-7,2.2c-2.7,0.3-5.5-0.3-7.9-1.7c-1.9-1.1-3.2-3.1-3.6-5.3l-8.1,0.4c0.3,2.6,1.4,5.1,3.1,7.1c1.9,2.1,4.3,3.7,7,4.6
		C672.8,567.5,676.1,567.9,679.4,567.6z"/>
	<path class="st1" d="M748.1,519.2l-10,0.4l-0.1-3.2c-0.1-2.9,0.5-5.1,1.9-6.4s3.8-2.1,7.3-2.2l-0.2-6.2c-6.1,0.2-10.5,1.5-13.2,4
		s-3.9,6.1-3.7,11.2l0.1,3.2l-6.2,0.2l0.2,6.1l6.1-0.2l1.4,38.7l7.8-0.3l-1.3-38.7l10-0.4L748.1,519.2z"/>
	<path class="st1" d="M779.1,564c4.2,0,8.4-1.1,12.1-3.1c3.6-1.9,6.5-4.8,8.6-8.3c4.2-7.6,4-16.9-0.4-24.4c-2.1-3.4-5.2-6.1-8.8-7.9
		c-7.8-3.6-16.8-3.4-24.5,0.5c-3.5,1.9-6.4,4.8-8.4,8.3c-2,3.8-3,8-2.8,12.3c0,4.3,1.2,8.5,3.4,12.1c2.1,3.4,5.1,6.2,8.7,8
		C770.8,563.3,774.9,564.2,779.1,564z M778.9,557.5c-2.7,0.1-5.4-0.5-7.8-1.7c-2.4-1.2-4.4-3.1-5.8-5.5c-1.6-2.8-2.4-6-2.4-9.2
		c-0.2-3.2,0.5-6.4,1.9-9.2c1.3-2.4,3.2-4.4,5.6-5.7c4.9-2.6,10.8-2.7,15.8-0.3c2.5,1.2,4.6,3.1,6,5.5c3.1,5.7,3.2,12.5,0.3,18.3
		c-1.4,2.4-3.4,4.4-5.9,5.8C784.4,556.7,781.7,557.4,778.9,557.5L778.9,557.5z"/>
	<path class="st1" d="M820.8,524.9l-0.1-7.3l-7.9,0.1l0.7,44.8l7.8-0.1L821,538c-0.1-9.1,4.2-13.6,13.1-13.7h2.1l-0.1-7.7
		c-3.3-0.1-6.5,0.7-9.4,2.2C824.2,520.3,822.1,522.4,820.8,524.9z"/>
	<path class="st1" d="M865.4,539.6c-0.1,4.2,0.9,8.4,2.9,12.1c1.9,3.4,4.6,6.3,8,8.3s7.3,3,11.3,3c3.7,0.1,7.4-0.8,10.7-2.5
		c2.9-1.5,5.3-3.7,7-6.5l-0.1,8.3h7.9l0.5-44.8h-8l-0.1,8.2c-1.6-2.7-4-4.9-6.8-6.4c-3.3-1.8-7-2.7-10.8-2.6c-4-0.1-8,0.9-11.5,2.8
		c-3.4,1.8-6.2,4.6-8.1,8C866.4,531.1,865.3,535.3,865.4,539.6z M905.4,539.8c0,3.1-0.7,6.2-2.2,8.9c-1.4,2.4-3.4,4.4-5.8,5.8
		c-5,2.6-11,2.6-16-0.1c-2.4-1.4-4.4-3.4-5.8-5.8c-1.5-2.8-2.2-5.9-2.2-9c-0.1-3.1,0.7-6.1,2.2-8.8c1.4-2.4,3.4-4.4,5.8-5.7
		c5.1-2.6,11.1-2.6,16.2,0.1c2.4,1.3,4.5,3.4,5.8,5.8C904.9,533.6,905.6,536.7,905.4,539.8L905.4,539.8z"/>
	<path class="st1" d="M1003.4,507.6c-7.9,15.3-15.7,30.8-23.4,46.2c-6.9-15.8-14-31.5-21.1-47.3c-2.8-0.1-5.7-0.1-8.5-0.2l-1,56.6
		c2.6,0,5.2,0.1,7.8,0.1l0.9-42.3c6.4,14.3,12.7,28.5,19,42.8l5.5,0.1c7-13.9,14-27.8,21-41.7l-1.3,42.2l7.8,0.3l1.8-56.6
		L1003.4,507.6z"/>
	<path class="st1" d="M1043.7,566.3c4.2,0.2,8.5-0.6,12.3-2.3c3.7-1.7,6.8-4.4,9.1-7.8c4.6-7.4,5-16.6,1.2-24.4
		c-1.9-3.5-4.8-6.4-8.3-8.4c-3.7-2.1-7.9-3.2-12.1-3.3c-4.2-0.2-8.5,0.6-12.3,2.4c-3.6,1.7-6.7,4.4-8.9,7.8c-2.3,3.6-3.5,7.7-3.6,12
		c-0.2,4.3,0.7,8.5,2.6,12.3c1.8,3.5,4.7,6.4,8.1,8.4C1035.5,565,1039.5,566.2,1043.7,566.3z M1044,559.8c-2.7-0.1-5.3-0.8-7.7-2.2
		c-2.3-1.4-4.2-3.4-5.4-5.8c-1.4-2.9-2-6.1-1.8-9.3c0-3.2,0.9-6.3,2.5-9.1c1.4-2.4,3.5-4.2,6-5.4s5.2-1.7,8-1.5
		c2.7,0.1,5.4,0.8,7.8,2.2s4.4,3.4,5.6,5.8c1.5,2.9,2.1,6.1,1.9,9.2c0,3.2-1,6.3-2.7,9.1c-1.5,2.3-3.7,4.2-6.2,5.4
		C1049.5,559.4,1046.8,559.9,1044,559.8L1044,559.8z"/>
	<path class="st1" d="M1083.1,522.4l-8.5-0.4c5.5,15.2,11,30.4,16.4,45.7l9.1,0.5c6.9-14.6,13.9-29.2,21-43.8l-8.4-0.4l-16.7,37.1
		L1083.1,522.4z"/>
	<path class="st1" d="M1133.3,517.9c1.4,0.1,2.7-0.3,3.8-1.2c2.1-1.8,2.3-5,0.5-7.1l-0.1-0.1c-0.9-1-2.2-1.6-3.6-1.7
		s-2.8,0.3-3.9,1.3c-2.1,1.7-2.4,4.8-0.6,6.9c0.1,0.1,0.2,0.2,0.2,0.3C1130.6,517.2,1131.9,517.8,1133.3,517.9z M1128.8,524.9
		l-2.6,44.8l7.8,0.5l2.7-44.8L1128.8,524.9z"/>
	<path class="st1" d="M1173.3,526.8c-3.1-0.3-6.1,0.2-9,1.3c-2.6,1-5,2.7-6.7,4.9l0.4-6.4l-7.9-0.5l-2.8,44.8l7.8,0.5l1.6-24.7
		c0.3-4.7,1.8-8.2,4.4-10.5s6-3.3,10.1-3s7.2,1.7,9.4,4.2c2.2,2.5,3.1,6,2.8,10.5l-1.8,25.3l7.7,0.5l1.9-26.4
		c0.4-6.2-1-11.1-4.3-14.6C1183.6,529.3,1179,527.3,1173.3,526.8z"/>
	<path class="st1" d="M1225.1,530.7c-4-0.4-8,0.3-11.7,2c-3.5,1.6-6.5,4.2-8.7,7.4c-2.3,3.5-3.6,7.6-3.8,11.8
		c-0.4,4.2,0.3,8.4,2,12.3c1.6,3.6,4.2,6.6,7.4,8.9c3.3,2.2,7.1,3.6,11.1,3.8c3.7,0.4,7.4-0.2,10.8-1.8c2.9-1.3,5.5-3.4,7.4-6
		l-0.8,9.4c-0.4,4.6-2,8.1-4.9,10.4c-3.1,2.4-6.9,3.5-10.8,3c-3.4-0.2-6.7-1.3-9.4-3.2c-2.4-1.7-4.1-4.2-4.8-7
		c-2.6-0.2-5.1-0.4-7.7-0.6c0.3,4.7,2.7,9,6.4,11.9c3.9,3.1,8.9,4.9,15,5.4c4.1,0.4,8.2-0.2,12-1.8c3.4-1.4,6.3-3.8,8.4-6.8
		c2.1-3.2,3.4-6.8,3.6-10.7l3.8-45.7c-2.7-0.2-5.3-0.4-7.9-0.7l-0.6,8.1c-1.4-2.8-3.6-5.2-6.3-6.9
		C1232.5,532.1,1228.8,530.9,1225.1,530.7z M1240.8,555.1c-0.2,3.1-1.2,6.1-2.9,8.7c-1.5,2.3-3.7,4.2-6.3,5.3
		c-2.6,1.1-5.4,1.6-8.2,1.4c-2.8-0.2-5.5-1.1-7.8-2.6s-4.2-3.7-5.3-6.2c-1.3-2.9-1.8-6-1.5-9.1c0.2-3.1,1.1-6.1,2.8-8.6
		c1.5-2.3,3.7-4.1,6.2-5.2c5.3-2.2,11.3-1.7,16.1,1.3c2.3,1.5,4.2,3.7,5.3,6.2C1240.6,549,1241.1,552.1,1240.8,555.1L1240.8,555.1z"
		/>
	<path class="st1" d="M1355.4,531.3l-18.2,46.5c-2.9-16.5-5.9-32.9-8.9-49.4l-8.8-0.8c-6.4,15.6-12.8,31.1-19.1,46.7l-8.6-49.4
		l-8.4-0.8c3.9,19.4,7.7,38.9,11.5,58.4l8.6,0.8l18.9-44.3c3.1,15.7,6.2,31.3,9.3,47.1l8.7,0.9c7.7-18.3,15.5-36.6,23.4-54.9
		L1355.4,531.3z"/>
	<path class="st1" d="M1386.5,592.9c4.2,0.5,8.5,0,12.4-1.5c3.8-1.4,7.1-3.8,9.6-7c5.1-7,6.3-16.2,3-24.2c-1.6-3.7-4.3-6.8-7.6-9
		c-7.2-4.6-16.2-5.6-24.3-2.8c-3.8,1.4-7,3.9-9.4,7.1c-2.5,3.4-4.1,7.5-4.5,11.7c-0.6,4.2,0,8.6,1.7,12.5c1.6,3.6,4.2,6.8,7.5,9
		C1378.4,591,1382.4,592.5,1386.5,592.9z M1387.3,586.4c-2.7-0.3-5.2-1.2-7.5-2.7c-2.2-1.5-4-3.7-5-6.2c-1.2-3-1.5-6.2-1.1-9.4
		c0.2-3.2,1.3-6.2,3.2-8.9c1.6-2.2,3.8-3.9,6.3-4.9c5.2-1.9,11-1.2,15.7,1.8c2.3,1.5,4.1,3.7,5.2,6.2c2.3,6.1,1.5,12.9-2.2,18.2
		c-1.7,2.2-4,3.9-6.6,4.9C1392.8,586.4,1390,586.7,1387.3,586.4z"/>
	<path class="st1" d="M1433.2,559.9l0.9-7.2l-7.8-1l-5.5,44.5l7.8,1l3-24.2c1.1-9,6.1-12.9,14.8-11.9l2.1,0.3l1-7.6
		c-3.2-0.5-6.5-0.2-9.6,1C1437.2,555.8,1434.9,557.6,1433.2,559.9z"/>
	<path class="st1" d="M1460.4,540.2l-7.8,60l7.8,1l7.9-60L1460.4,540.2z"/>
	<path class="st1" d="M1473.6,580.2c-0.6,4.2-0.2,8.4,1.3,12.4c1.4,3.7,3.8,6.9,6.9,9.2c3.2,2.4,6.9,4,10.9,4.5
		c3.7,0.6,7.4,0.2,10.9-1.1c3-1.1,5.7-3,7.7-5.6l-1.2,8.3l7.8,1.1l8.7-59.9l-7.9-1.1l-3.4,23.5c-1.4-3-3.6-5.5-6.3-7.3
		c-2.9-2-6.3-3.4-9.9-3.8c-4-0.6-8.1-0.2-11.9,1.2c-3.6,1.4-6.8,3.8-9.1,6.9C1475.7,572,1474.1,576,1473.6,580.2z M1513.3,585.8
		c-0.4,3.1-1.5,6-3.4,8.5c-1.7,2.2-4,3.9-6.6,4.9s-5.5,1.3-8.2,0.9c-2.8-0.4-5.4-1.4-7.6-3.1c-2.2-1.7-3.9-4-4.9-6.6
		c-1.1-2.9-1.4-6.1-0.9-9.2c0.3-3.1,1.5-6,3.3-8.5c1.7-2.2,3.9-3.9,6.5-4.9c5.4-1.9,11.4-1,16,2.3c2.3,1.7,4,3.9,5,6.5
		C1513.5,579.6,1513.8,582.8,1513.3,585.8z"/>
	<path class="st1" d="M1853.3,441.5c2.2,0.5,4.5,1,6.8,1.5c2.9,0.6,4.8,3.4,4.4,6.3c-1.2,5.5-2.4,11-3.6,16.5
		c-4.6,20.7-9.3,41.3-13.9,62c-0.3,1.3-0.8,2.6-1.5,3.7c-1.6,2.4-4.1,2.7-6.7,2.2c-4.9-1-9.7-2.1-14.5-3.2c-0.1-2.2-0.2-4.3-0.4-6.4
		c-0.4-3.9-1.9-7.7-4.4-10.8c-1.9-2.4-4.3-4.4-7-5.9c-2-1.2-4.4-1.5-6.7-2.1c-4.3-1-8.8-0.6-12.8,1.1c-4.7,1.9-8.5,5.4-10.9,9.9
		c-0.5,1-0.9,2.1-1.2,3.1c-0.2,1-0.7,1.1-1.6,0.9c-4.2-1-8.4-1.8-12.5-2.9c-1.8-0.5-3.2-1.8-3.8-3.6c-0.2-0.5-0.7-0.9-1.2-1.1
		c-7.3-1.7-14.7-3.3-22.1-4.9c-1.3-0.2-2.1-1.3-2-2.6c0-1.2,1.7-2.5,3-2.4c1,0.1,1.9,0.3,2.9,0.5l19.4,4.3l1.7-7.5l0.7-2.9
		c-6.2-1.4-12.3-2.8-18.3-4.1c-7.2-1.6-14.4-3-21.5-4.8c-1.1-0.3-2.1-2.1-2.5-3.4c-0.3-1.3,0.4-2.6,1.6-3.1c1.4-0.7,3.1-0.9,4.6-0.4
		c12.1,2.7,24.1,5.4,36.2,8.1l1.5,0.3l0.6-2.5l0.5-2.4l2.6-11.8c-0.4-0.2-0.9-0.3-1.3-0.4c-15.9-3.6-31.8-7.2-47.7-10.7
		c-2-0.4-3.4-1.1-4.1-3.2s2-4.4,3.6-4.3c1,0.1,2,0.2,3,0.5l46.4,10.4l1.8,0.4l1-4.4l6.8-31.5c0.7-2.9,3.5-4.7,6.4-4.1l68.7,15.5"/>
	<path class="st1" d="M1908.1,466.6c4.4,0.9,6.2,3,7.1,7.4c0.8,4,2,7.8,3.2,11.7c1.3,4.3,3,8.4,4.2,12.7c1,3.7,1.9,7.5,2.5,11.4
		c0.4,2.6,0.5,5.1,0.4,7.7c0,3.4-0.1,6.8-0.4,10.1c-0.2,2.3-0.6,4.6-1.2,6.8c-0.7,3.1-1.5,6.1-2.6,9.1s-3,5.5-6.2,6.7
		c-0.5,0.3-1.1,0.4-1.7,0.4c-3.3-0.7-6.5-1.4-9.3-2c-0.2-2.5-0.5-4.9-0.9-7.3c-1.6-6.2-5.7-10.3-11.5-13c-4.6-2.1-9.9-2.3-14.6-0.5
		c-5.1,1.8-9.2,5.1-11.1,10.5c-0.4,1.1-1.1,1.7-2.3,1.3c-2-0.7-4.3-0.8-6-2c-2.9-1.9-3.2-5.1-2.5-8.2c2.9-13.2,5.9-26.3,8.8-39.4
		c1.9-8.5,3.7-17.1,5.8-25.6c1.1-4.5,2.9-5.1,6.8-4.4c4.6,0.9,9.2,2,13.8,3L1908.1,466.6z M1893.2,489.7c-1,4.4-2,8.7-2.9,13.1
		c-0.6,2.9,0.3,4.5,3.1,5c5.4,1,10.9,2,16.3,2.9c1.5,0.2,3.1-0.3,4.1-1.5c2-2.2,2.3-4.9,1.8-7.6c-1.5-7.3-3.1-14.5-4.6-21.8
		c-0.3-1.7-1.4-3.1-3-3.7c-2.5-1-5.1-1.7-7.7-2c-2.9-0.3-3.9,0.8-4.3,3.2C1895.1,481.5,1894.1,485.6,1893.2,489.7z"/>
	<path class="st1" d="M1786.2,526.4c0.5-3.1,2.1-6,4.5-8.1c3.2-3.1,7.5-4.8,11.9-4.6c5.1,0.1,8.9,2.6,11.9,6.2
		c2.4,2.9,3.6,6.5,3.4,10.2c-0.3,9.2-9.4,15.2-17.2,14.6c-6.8-0.6-11-4.4-13.6-10.3C1786,532,1785.7,529.1,1786.2,526.4z"/>
	<path class="st1" d="M1887.1,534.6c7,1.9,12.2,9.2,11,15.9c-1.3,7.7-8.5,12.9-16.2,11.7c-0.3,0-0.6-0.1-0.9-0.2
		c-8.1-2-12.4-8.8-10.8-16.8C1871.6,538,1879,533.2,1887.1,534.6z"/>
	<path class="st1" d="M1758.8,450.1c1.6,0.4,3.2,0.8,4.8,1.1c1.6,0.1,3,1.1,3.6,2.5c0.9,1.8,0.7,3.4-1.2,4.1
		c-1.1,0.5-2.3,0.6-3.5,0.5c-3.7-0.7-7.4-1.6-11.1-2.4c-2-0.4-3.5-2.1-3.6-4.1c-0.1-1.6,2.6-3.4,4.7-3S1756.7,449.7,1758.8,450.1
		L1758.8,450.1z"/>
	<path class="st1" d="M1777.2,437.3c-12.1-2.7-24.1-5.4-36.2-8.1c-1.5-0.5-3.2-0.3-4.6,0.4c-1.2,0.5-1.9,1.8-1.6,3.1
		c0.4,1.3,1.4,3.1,2.5,3.4c7.1,1.8,14.3,3.2,21.5,4.8c6.1,1.3,12.1,2.7,18.3,4.1l1.6-7.3L1777.2,437.3z"/>
</g>
</svg>
